<svg xmlns="http://www.w3.org/2000/svg" width="81.896" height="68.426" viewBox="0 0 81.896 68.426">
  <g id="Group_3616" data-name="Group 3616" transform="translate(-1318 -2196)">
    <g id="Object" transform="translate(1317.961 2196)">
      <g id="Group_3589" data-name="Group 3589" transform="translate(0.039 38.919)">
        <g id="Group_3587" data-name="Group 3587" transform="translate(0 7.004)">
          <path id="Path_36420" data-name="Path 36420" d="M17.49,239.523,3.866,243.612,5.155,236.2,0,230.729l13.622-4.089Z" transform="translate(0 -226.64)" fill="#bc7f23"/>
          <path id="Path_36421" data-name="Path 36421" d="M63.5,276.784l-3.414.1a2.28,2.28,0,0,1-2.249-1.625L57.7,274.8l4.776-1.433,1.025,3.414Z" transform="translate(-46.009 -263.902)" fill="#775115"/>
        </g>
        <g id="Group_3588" data-name="Group 3588" transform="translate(64.525 6.868)">
          <path id="Path_36422" data-name="Path 36422" d="M318.45,238.9l13.675,3.907-1.386-7.39,5.082-5.544-13.675-3.907Z" transform="translate(-318.45 -225.97)" fill="#bc7f23"/>
          <path id="Path_36423" data-name="Path 36423" d="M318.45,276.308l3.416.051a2.277,2.277,0,0,0,2.227-1.655l.13-.454-4.794-1.37Z" transform="translate(-318.45 -263.375)" fill="#775115"/>
        </g>
        <path id="Path_36424" data-name="Path 36424" d="M99.939,210.16a94.683,94.683,0,0,0-58.513,0q-2.079-6.4-4.156-12.794a108.141,108.141,0,0,1,66.827,0q-2.079,6.4-4.156,12.794Z" transform="translate(-29.718 -192.075)" fill="#dd972d"/>
      </g>
      <g id="Group_3586" data-name="Group 3586" transform="translate(14.039)">
        <path id="Path_36418" data-name="Path 36418" d="M129.684,53.264A20.31,20.31,0,0,1,123,50.429a45.471,45.471,0,0,1-9-8.119,45.5,45.5,0,0,1-8.806,7.985,20.763,20.763,0,0,1-6.84,2.928c-1.692.385-3.416.5-5.122.772-.014,1.974-.172,3.943-.162,5.919A55.613,55.613,0,0,0,94.108,70.74a34.29,34.29,0,0,0,3.864,10.516A27.341,27.341,0,0,0,106.7,90.07c1.868,1.264,3.765,2.484,5.677,3.68a10.014,10.014,0,0,1,1.548.954.285.285,0,0,0,.073.049.3.3,0,0,0,.069-.049,8.722,8.722,0,0,1,1.668-1.029q1.261-.79,2.513-1.6c2-1.291,4.042-2.573,5.919-4.042,6.127-4.8,9.057-12.346,10.168-19.841.705-4.764.438-9.43.43-14.2-1.694-.265-3.4-.361-5.084-.733Z" transform="translate(-86.716 -33.737)" fill="#d06b6a"/>
        <path id="Path_36419" data-name="Path 36419" d="M116.076,15.282c-3.657-.652-9.578-.239-16.842-5.643A76.734,76.734,0,0,1,89,0,76.005,76.005,0,0,1,78.775,9.637C71.655,14.9,65.59,14.627,61.933,15.28c.024,4.093-3.212,32.237,14.737,45.11C81.563,63.9,88.969,68.44,89,68.426c.034.014,7.44-4.527,12.334-8.036,17.95-12.873,14.712-41.017,14.737-45.11ZM110.7,26.625a55.163,55.163,0,0,1-1.216,11.3,33.823,33.823,0,0,1-4.192,10.65,29.138,29.138,0,0,1-8.927,8.642q-2.757,1.854-5.582,3.6c-.582.363-1.374,1.149-2.075.912a8.346,8.346,0,0,1-1.487-.912q-1.207-.751-2.4-1.518c-2.049-1.313-4.111-2.632-6.058-4.093-6.348-4.764-9.533-12.338-10.757-19.985a59.923,59.923,0,0,1-.707-9.693c.006-1.868.168-3.732.166-5.6a.387.387,0,0,1,.282-.371c1.69-.288,3.4-.391,5.08-.746a20.251,20.251,0,0,0,6.98-2.922,45.423,45.423,0,0,0,8.921-8.174.386.386,0,0,1,.543,0,45.485,45.485,0,0,0,9.114,8.308,19.829,19.829,0,0,0,6.97,2.855c1.621.322,3.27.4,4.9.679a.309.309,0,0,1,.278.314.486.486,0,0,1,.006.057c0,2.231.186,4.456.162,6.691Z" transform="translate(-61.721)"/>
      </g>
    </g>
    <g id="OBJECTS" transform="translate(1344 2219)">
      <g id="Group_3605" data-name="Group 3605">
        <g id="Group_3603" data-name="Group 3603">
          <rect id="Rectangle_22167" data-name="Rectangle 22167" width="30.138" height="19.168" rx="1" fill="#ddeaf0"/>
          <path id="Path_36454" data-name="Path 36454" d="M30.138.718V4.269H0V.718A.716.716,0,0,1,.718,0h28.7A.716.716,0,0,1,30.138.718Z" fill="#5aa8b9"/>
          <rect id="Rectangle_22168" data-name="Rectangle 22168" width="30.138" height="0.872" transform="translate(0 4.269)" fill="#3d8591"/>
          <g id="Group_3602" data-name="Group 3602" transform="translate(1.97 6.709)">
            <rect id="Rectangle_22169" data-name="Rectangle 22169" width="9.425" height="10.051" fill="#fff"/>
            <g id="Group_3601" data-name="Group 3601" transform="translate(0.2 0.534)">
              <path id="Path_36455" data-name="Path 36455" d="M17.282,85.48H13.69a13.085,13.085,0,0,1,.575-2.759,1.808,1.808,0,0,1,1.3-.77l1.111-.2.5-.092,0,.16h0l.011.437V82.3l0,.136,0,.1.017.667.017.729.041,1.551Z" transform="translate(-13.69 -75.964)" fill="#3b424c"/>
              <path id="Path_36456" data-name="Path 36456" d="M51.249,85.034H47.66l.04-1.562.019-.7h0l.006-.258.011-.469,0-.184v-.048l0-.027h0l.017-.656.052.013.458.109,1.049.255a1.908,1.908,0,0,1,1.353.77,12.966,12.966,0,0,1,.575,2.759Z" transform="translate(-42.277 -75.518)" fill="#3b424c"/>
              <rect id="Rectangle_22170" data-name="Rectangle 22170" width="3.372" height="3.223" transform="translate(2.765 6.294)" fill="#eae3cc"/>
              <path id="Path_36457" data-name="Path 36457" d="M48,83.189a1.644,1.644,0,0,0,.41.764H46.927a11.751,11.751,0,0,0,.285-1.889,4.947,4.947,0,0,0,0-.594,3.572,3.572,0,0,0-.084-.537.638.638,0,0,0-.055-.143c-.022-.04-.048-.052-.076-.024l-.006.006a.045.045,0,0,1-.067.006.19.19,0,0,1-.019-.017.258.258,0,0,1-.027-.03c-.138-.193-.284-.8-.108-.872a.333.333,0,0,1,.227.011,1.363,1.363,0,0,1,.458.3,1.821,1.821,0,0,1,.382.5,22.618,22.618,0,0,1,.919,2.214,2.605,2.605,0,0,1-.754.309Z" transform="translate(-41.461 -74.436)" fill="#282f39"/>
              <path id="Path_36458" data-name="Path 36458" d="M26.529,80.683a.164.164,0,0,1-.03.035c-.029.027-.055.033-.076.011a.008.008,0,0,1-.006,0l-.011-.011c-.027-.022-.051-.01-.074.029a.445.445,0,0,0-.046.12,3.116,3.116,0,0,0-.092.559,3.979,3.979,0,0,0,0,.439,11.087,11.087,0,0,0,.292,2.046H25a1.662,1.662,0,0,0,.409-.764,2.65,2.65,0,0,1-.754-.309,23.255,23.255,0,0,1,.919-2.214,1.639,1.639,0,0,1,.333-.441,1.6,1.6,0,0,1,.5-.352.353.353,0,0,1,.258-.022c.177.073.013.685-.133.878Z" transform="translate(-22.913 -74.389)" fill="#282f39"/>
              <path id="Path_36459" data-name="Path 36459" d="M37.766,76.721c.084,1.512-1.87,1.786-2.046,0V74.957h2.046C37.767,74.922,37.766,76.721,37.766,76.721Z" transform="translate(-32.229 -70.323)" fill="#e5a973"/>
              <path id="Path_36460" data-name="Path 36460" d="M34.415,50.287c-.079-.326-.563-1.1-2.038-.93a1.468,1.468,0,0,0-1.157,1.152c-.206,1.7-.067,2.622.873,3.491a1.54,1.54,0,0,0,.78.428c.548.087,1.077-.545,1.337-1.035a2.738,2.738,0,0,0,.331-1.375,5.939,5.939,0,0,0-.127-1.732Z" transform="translate(-28.374 -48.759)" fill="#f4bd87"/>
              <path id="Path_36461" data-name="Path 36461" d="M32.249,47.531a1.982,1.982,0,0,0-1.068-1.594,3.218,3.218,0,0,0-1.054-.227,1.935,1.935,0,0,0-1.323.574c-.325-.027-.735.675-.794,1.036a4.04,4.04,0,0,0,.139,1.6c.09.323.239.225.385.426a2.827,2.827,0,0,0,.139-1.016c.008-.195.7-.827.567-1,.342.437.756.4,1.209.461a2.957,2.957,0,0,1,1.269.455,4.07,4.07,0,0,0,.138,1.1c.414-.189.482-1.168.388-1.821Z" transform="translate(-25.714 -45.71)" fill="#9e4739"/>
              <path id="Path_36462" data-name="Path 36462" d="M28.309,65.556c-.1-.16-.455-.382-.624-.209a.3.3,0,0,0-.059.238.966.966,0,0,0,.325.631.4.4,0,0,0,.151.09.2.2,0,0,0,.17-.024.237.237,0,0,0,.06-.076.731.731,0,0,0-.022-.651Z" transform="translate(-25.416 -62.182)" fill="#f4bd87"/>
              <path id="Path_36463" data-name="Path 36463" d="M51.671,65.556c.1-.16.455-.382.624-.209a.3.3,0,0,1,.059.238.966.966,0,0,1-.325.631.4.4,0,0,1-.151.09.2.2,0,0,1-.17-.024.237.237,0,0,1-.06-.076.731.731,0,0,1,.022-.651Z" transform="translate(-45.579 -62.182)" fill="#f4bd87"/>
              <path id="Path_36464" data-name="Path 36464" d="M35.77,85.795s-.233-.122-.314-.155a1.418,1.418,0,0,1-.3-.157.5.5,0,0,1-.2-.273,1.827,1.827,0,0,0,.247,1.139,1.34,1.34,0,0,0,.929.32,4.6,4.6,0,0,1-.358-.875Z" transform="translate(-31.573 -78.951)" fill="#ddd6c3"/>
              <path id="Path_36465" data-name="Path 36465" d="M42.987,85.795s.233-.122.314-.155a1.418,1.418,0,0,0,.3-.157.5.5,0,0,0,.2-.273,1.4,1.4,0,0,1-.209.994,1.255,1.255,0,0,1-.833.466c.035,0,.144-.6.225-.875Z" transform="translate(-38.154 -78.951)" fill="#ddd6c3"/>
              <path id="Path_36466" data-name="Path 36466" d="M40.159,90.626h-.566L39.44,89.8h.867Z" transform="translate(-35.36 -82.814)" fill="#4a98a5"/>
              <path id="Path_36467" data-name="Path 36467" d="M33.955,82.808a1.443,1.443,0,0,1-.132-.618c-.3.127-.364.875-.357,1.152a2.451,2.451,0,0,0,.585,1.258,4.693,4.693,0,0,1,.642-1.214.038.038,0,0,0-.014-.057,2.141,2.141,0,0,1-.726-.521Z" transform="translate(-30.332 -76.41)" fill="#f7f2df"/>
              <path id="Path_36468" data-name="Path 36468" d="M43.977,82.808a1.531,1.531,0,0,0,.132-.618c.3.127.364.875.357,1.152a1.935,1.935,0,0,1-.418,1.158,4.255,4.255,0,0,0-.788-1.114.04.04,0,0,1,.014-.059,2.06,2.06,0,0,0,.7-.521Z" transform="translate(-38.568 -76.41)" fill="#f7f2df"/>
              <path id="Path_36469" data-name="Path 36469" d="M40.315,96.715H39.44l.152-1.7h.567Z" transform="translate(-35.36 -87.198)" fill="#5aa8b9"/>
            </g>
          </g>
          <rect id="Rectangle_22171" data-name="Rectangle 22171" width="4.597" height="1.024" transform="translate(13.22 6.709)" fill="#8fc5d6"/>
          <rect id="Rectangle_22172" data-name="Rectangle 22172" width="3.866" height="1.024" transform="translate(13.22 8.965)" fill="#8fc5d6"/>
          <rect id="Rectangle_22173" data-name="Rectangle 22173" width="4.597" height="1.024" transform="translate(13.22 11.222)" fill="#8fc5d6"/>
          <rect id="Rectangle_22174" data-name="Rectangle 22174" width="4.012" height="1.024" transform="translate(13.22 13.48)" fill="#8fc5d6"/>
          <rect id="Rectangle_22175" data-name="Rectangle 22175" width="4.597" height="1.024" transform="translate(13.22 15.736)" fill="#8fc5d6"/>
          <rect id="Rectangle_22176" data-name="Rectangle 22176" width="8.609" height="1.024" transform="translate(19.297 6.709)" fill="#8fc5d6"/>
          <rect id="Rectangle_22177" data-name="Rectangle 22177" width="7.284" height="1.024" transform="translate(19.297 8.965)" fill="#8fc5d6"/>
          <rect id="Rectangle_22178" data-name="Rectangle 22178" width="4.305" height="1.024" transform="translate(19.297 11.222)" fill="#8fc5d6"/>
          <rect id="Rectangle_22179" data-name="Rectangle 22179" width="6.012" height="1.024" transform="translate(19.297 13.48)" fill="#8fc5d6"/>
          <rect id="Rectangle_22180" data-name="Rectangle 22180" width="7.596" height="1.024" transform="translate(19.297 15.736)" fill="#8fc5d6"/>
        </g>
        <g id="Group_3604" data-name="Group 3604" transform="translate(10.856 1.811)">
          <path id="Path_36470" data-name="Path 36470" d="M68.783,13.145H68.51V11.57h.273Z" transform="translate(-68.51 -11.548)" fill="#fff"/>
          <path id="Path_36471" data-name="Path 36471" d="M72.36,13.145V11.57h.466a.732.732,0,0,1,.371.093.631.631,0,0,1,.25.265.843.843,0,0,1,.089.391V12.4a.852.852,0,0,1-.089.395.612.612,0,0,1-.254.261.757.757,0,0,1-.379.092h-.453Zm.274-1.355v1.136h.179a.411.411,0,0,0,.331-.135.584.584,0,0,0,.117-.387v-.087a.6.6,0,0,0-.111-.391.394.394,0,0,0-.323-.135h-.192Z" transform="translate(-71.75 -11.548)" fill="#fff"/>
          <path id="Path_36472" data-name="Path 36472" d="M85.922,12.514a.568.568,0,0,1-.185.393.637.637,0,0,1-.433.141.62.62,0,0,1-.331-.089.589.589,0,0,1-.222-.254.9.9,0,0,1-.081-.382v-.147a.931.931,0,0,1,.079-.393.591.591,0,0,1,.227-.261.627.627,0,0,1,.341-.092.612.612,0,0,1,.42.141.59.59,0,0,1,.185.4h-.273a.4.4,0,0,0-.1-.246.325.325,0,0,0-.233-.076.318.318,0,0,0-.274.13.656.656,0,0,0-.1.383V12.3a.681.681,0,0,0,.092.39.3.3,0,0,0,.268.135.349.349,0,0,0,.242-.073.375.375,0,0,0,.1-.241h.273Z" transform="translate(-82.109 -11.43)" fill="#fff"/>
          <path id="Path_36473" data-name="Path 36473" d="M94.244,12.777h-.61l-.128.368H93.22l.6-1.575h.246l.6,1.575h-.285Zm-.534-.22h.456l-.228-.653Z" transform="translate(-89.305 -11.548)" fill="#fff"/>
          <path id="Path_36474" data-name="Path 36474" d="M103.99,12.53h-.306v.605h-.274V11.56h.555a.652.652,0,0,1,.421.122.434.434,0,0,1,.149.353.443.443,0,0,1-.076.265.5.5,0,0,1-.212.165l.353.656v.014h-.293l-.315-.605Zm-.3-.22h.282a.319.319,0,0,0,.217-.07.243.243,0,0,0,.078-.192.27.27,0,0,0-.071-.2.306.306,0,0,0-.216-.071h-.288v.528Z" transform="translate(-97.88 -11.539)" fill="#fff"/>
          <path id="Path_36475" data-name="Path 36475" d="M112.15,13.145V11.57h.466a.732.732,0,0,1,.371.093.631.631,0,0,1,.25.265.843.843,0,0,1,.089.391V12.4a.851.851,0,0,1-.089.395.612.612,0,0,1-.254.261.757.757,0,0,1-.379.092h-.453Zm.274-1.355v1.136h.179a.411.411,0,0,0,.331-.135.584.584,0,0,0,.117-.387v-.087a.6.6,0,0,0-.111-.391.394.394,0,0,0-.323-.135h-.192Z" transform="translate(-105.235 -11.548)" fill="#fff"/>
        </g>
      </g>
    </g>
  </g>
</svg>
