<?xml version="1.0" encoding="UTF-8"?>
<svg id="Layer_2" data-name="Layer 2" xmlns="http://www.w3.org/2000/svg" xmlns:xlink="http://www.w3.org/1999/xlink" viewBox="0 0 1193.35 401.12">
  <defs>
    <style>
      .cls-1 {
        fill: none;
      }

      .cls-2 {
        fill: #f9af3f;
      }

      .cls-3 {
        clip-path: url(#clippath);
      }
    </style>
    <clipPath id="clippath">
      <rect id="Rectangle_22978" data-name="Rectangle 22978" class="cls-1" width="1193.35" height="401.12"/>
    </clipPath>
  </defs>
  <g id="Group_4728" data-name="Group 4728">
    <g class="cls-3">
      <g id="Group_4514" data-name="Group 4514">
        <path class="cls-2" d="M49.09,454l-44.69-41.55c14.18-15.25,66.76-68.43,148.01-112.42,36.18-19.59,72.5-34.2,107.94-43.42,41.91-10.9,82.81-14.31,121.58-10.12l1.13.12,1.12.21,264.69,48.71c89.99,14.98,189.46,12.28,245.27-120.77l1-2.38,1.38-2.18c21.21-33.39,52.34-75.78,105.22-107.5,28.03-16.81,59.9-29.11,94.72-36.56,38.79-8.3,82.52-10.86,129.98-7.6l-4.18,60.88c-77.24-5.32-140.87,6.67-189.13,35.61-40.68,24.39-65.21,56.86-83.75,85.78-33.63,78.68-85.51,129.34-154.24,150.59-26.27,8.12-54.25,11.87-85.55,11.4-27.44-.4-52.36-4.02-71.01-7.13l-.5-.09-263.79-48.54c-74.01-7.64-145.65,21.11-192.82,46.65-58.06,31.43-106.45,72.43-132.37,100.31Z"/>
      </g>
    </g>
  </g>
</svg>