<svg id="Object" xmlns="http://www.w3.org/2000/svg" width="81.896" height="68.425" viewBox="0 0 81.896 68.425">
  <g id="Group_3589" data-name="Group 3589" transform="translate(0 38.919)">
    <g id="Group_3587" data-name="Group 3587" transform="translate(0 7.004)">
      <path id="Path_36420" data-name="Path 36420" d="M17.49,239.523,3.866,243.612,5.155,236.2,0,230.729l13.622-4.089Z" transform="translate(0 -226.64)" fill="#bc7f23"/>
      <path id="Path_36421" data-name="Path 36421" d="M63.5,276.784l-3.414.1a2.28,2.28,0,0,1-2.249-1.625L57.7,274.8l4.776-1.433,1.025,3.414Z" transform="translate(-46.009 -263.902)" fill="#775115"/>
    </g>
    <g id="Group_3588" data-name="Group 3588" transform="translate(64.525 6.868)">
      <path id="Path_36422" data-name="Path 36422" d="M318.45,238.9l13.675,3.907-1.386-7.39,5.082-5.544-13.675-3.907Z" transform="translate(-318.45 -225.97)" fill="#bc7f23"/>
      <path id="Path_36423" data-name="Path 36423" d="M318.45,276.308l3.416.051a2.277,2.277,0,0,0,2.227-1.655l.13-.454-4.794-1.37Z" transform="translate(-318.45 -263.375)" fill="#775115"/>
    </g>
    <path id="Path_36424" data-name="Path 36424" d="M99.939,210.16a94.683,94.683,0,0,0-58.513,0q-2.079-6.4-4.156-12.794a108.141,108.141,0,0,1,66.827,0q-2.079,6.4-4.156,12.794Z" transform="translate(-29.718 -192.075)" fill="#dd972d"/>
  </g>
  <g id="Group_3586" data-name="Group 3586" transform="translate(12.506)">
    <path id="Path_36418" data-name="Path 36418" d="M129.684,53.264A20.31,20.31,0,0,1,123,50.429a45.471,45.471,0,0,1-9-8.119,45.5,45.5,0,0,1-8.806,7.985,20.763,20.763,0,0,1-6.84,2.928c-1.692.385-3.416.5-5.122.772-.014,1.974-.172,3.943-.162,5.919A55.612,55.612,0,0,0,94.108,70.74a34.289,34.289,0,0,0,3.864,10.516A27.34,27.34,0,0,0,106.7,90.07c1.868,1.264,3.765,2.484,5.677,3.68a10.015,10.015,0,0,1,1.548.954.285.285,0,0,0,.073.049.3.3,0,0,0,.069-.049,8.722,8.722,0,0,1,1.668-1.029q1.261-.79,2.513-1.6c2-1.291,4.042-2.573,5.919-4.042,6.127-4.8,9.057-12.346,10.168-19.841.705-4.764.438-9.43.43-14.2-1.694-.265-3.4-.361-5.084-.733Z" transform="translate(-86.716 -33.737)" fill="#7f75d0"/>
    <path id="Path_36419" data-name="Path 36419" d="M116.076,15.282c-3.657-.652-9.578-.239-16.842-5.643A76.734,76.734,0,0,1,89,0,76,76,0,0,1,78.775,9.637C71.655,14.9,65.59,14.627,61.933,15.28c.024,4.093-3.212,32.237,14.737,45.11,4.893,3.509,12.3,8.05,12.334,8.036.034.014,7.44-4.527,12.334-8.036,17.95-12.873,14.712-41.017,14.737-45.11ZM110.7,26.624a55.162,55.162,0,0,1-1.216,11.3,33.823,33.823,0,0,1-4.192,10.65,29.138,29.138,0,0,1-8.927,8.642q-2.757,1.854-5.582,3.6c-.582.363-1.374,1.149-2.075.912a8.346,8.346,0,0,1-1.487-.912q-1.207-.751-2.4-1.518c-2.049-1.313-4.111-2.632-6.058-4.093-6.348-4.764-9.533-12.338-10.757-19.985a59.922,59.922,0,0,1-.707-9.693c.006-1.868.168-3.732.166-5.6a.387.387,0,0,1,.282-.371c1.69-.288,3.4-.391,5.08-.746a20.251,20.251,0,0,0,6.98-2.922,45.423,45.423,0,0,0,8.921-8.174.386.386,0,0,1,.543,0,45.485,45.485,0,0,0,9.114,8.307,19.829,19.829,0,0,0,6.97,2.855c1.621.322,3.27.4,4.9.679a.309.309,0,0,1,.278.314.486.486,0,0,1,.006.057c0,2.231.186,4.456.162,6.691Z" transform="translate(-61.721)"/>
  </g>
</svg>
