<svg xmlns="http://www.w3.org/2000/svg" xmlns:xlink="http://www.w3.org/1999/xlink" width="42.698" height="42.699" viewBox="0 0 42.698 42.699">
  <defs>
    <linearGradient id="linear-gradient" x1="1" x2="0" y2="1" gradientUnits="objectBoundingBox">
      <stop offset="0" stop-color="#fbe189"/>
      <stop offset="0.19" stop-color="#fcbd48"/>
      <stop offset="0.364" stop-color="#f75b76"/>
      <stop offset="0.578" stop-color="#d74091"/>
      <stop offset="0.812" stop-color="#893ad0"/>
      <stop offset="1" stop-color="#5b4fe8"/>
    </linearGradient>
  </defs>
  <g id="Group_4725" data-name="Group 4725" transform="translate(15230.577 -7383.343)">
    <path id="Path_38509" data-name="Path 38509" d="M6.62,31.528V11.171A11.2,11.2,0,0,1,17.791,0H38.148A11.2,11.2,0,0,1,49.319,11.171V31.528A11.2,11.2,0,0,1,38.148,42.7H17.791A11.2,11.2,0,0,1,6.62,31.528Z" transform="translate(-15237.197 7383.343)" fill="url(#linear-gradient)"/>
    <g id="Group_4484" data-name="Group 4484" transform="translate(-15221.744 7392.177)">
      <path id="Path_38476" data-name="Path 38476" d="M68.715,9.61a1.475,1.475,0,1,0,1.475,1.475A1.471,1.471,0,0,0,68.715,9.61Z" transform="translate(-49.571 -5.142)" fill="#fff"/>
      <path id="Path_38477" data-name="Path 38477" d="M65.722,10.9a6.162,6.162,0,1,0,6.162,6.162A6.164,6.164,0,0,0,65.722,10.9Zm0,10.12a3.943,3.943,0,1,1,3.943-3.943,3.945,3.945,0,0,1-3.943,3.943Z" transform="translate(-53.106 -4.548)" fill="#fff"/>
      <path id="Path_38478" data-name="Path 38478" d="M72.649,31.579H62.66a7.528,7.528,0,0,1-7.52-7.52V14.07a7.528,7.528,0,0,1,7.52-7.52h9.988a7.528,7.528,0,0,1,7.52,7.52v9.988A7.528,7.528,0,0,1,72.649,31.579ZM62.66,8.9a5.179,5.179,0,0,0-5.169,5.169v9.988a5.179,5.179,0,0,0,5.169,5.169h9.988a5.179,5.179,0,0,0,5.169-5.169V14.07A5.179,5.179,0,0,0,72.649,8.9H62.66Z" transform="translate(-55.14 -6.55)" fill="#fff"/>
    </g>
  </g>
</svg>
