<svg xmlns="http://www.w3.org/2000/svg" xmlns:xlink="http://www.w3.org/1999/xlink" width="42.698" height="42.699" viewBox="0 0 42.698 42.699">
  <defs>
    <linearGradient id="linear-gradient" x1="1" x2="0" y2="1" gradientUnits="objectBoundingBox">
      <stop offset="0" stop-color="#fef60b"/>
      <stop offset="1" stop-color="#fbc03f"/>
    </linearGradient>
  </defs>
  <g id="Group_4723" data-name="Group 4723" transform="translate(14932.048 -7383.343)">
    <path id="Path_38508" data-name="Path 38508" d="M6.62,31.528V11.171A11.2,11.2,0,0,1,17.791,0H38.148A11.2,11.2,0,0,1,49.319,11.171V31.528A11.2,11.2,0,0,1,38.148,42.7H17.791A11.2,11.2,0,0,1,6.62,31.528Z" transform="translate(-14938.668 7383.343)" fill="url(#linear-gradient)"/>
    <path id="Path_38512" data-name="Path 38512" d="M12.3,68.385v-.409a1.05,1.05,0,0,1,.613-.409,6.989,6.989,0,0,0,4.673-3.592c.905-1.519.759-1.855-.92-2.453a2.318,2.318,0,0,1-.292-.1,3.522,3.522,0,0,1-1.022-.57c-.759-.657-.307-1.592.584-1.811.643-.161,1.212.263,1.84.336.423.058.584-.088.54-.54a21.225,21.225,0,0,1-.073-3.475,5.838,5.838,0,0,1,3.037-4.98,7.679,7.679,0,0,1,8.207-.029,5.886,5.886,0,0,1,3.023,4.5,20.766,20.766,0,0,1,0,3.928c-.044.57.073.672.628.54.7-.161,1.285-.526,2.015-.2a1.1,1.1,0,0,1,.716.964,1.026,1.026,0,0,1-.394.745,3.966,3.966,0,0,1-1.183.613c-.321.131-.643.234-.949.365-.628.292-.818.686-.526,1.314a7.268,7.268,0,0,0,4.98,4.4,1.154,1.154,0,0,1,.716.438v.409a1.87,1.87,0,0,1-1.11.92,5.866,5.866,0,0,1-1.475.423,1.1,1.1,0,0,0-1.183,1.1c-.1.7-.321.8-1.022.745a3.079,3.079,0,0,1-.511-.073,4.59,4.59,0,0,0-3.87.818c-.219.175-.467.336-.716.5A5.355,5.355,0,0,1,22.61,73c-.555-.321-1.1-.7-1.636-1.051a3.745,3.745,0,0,0-1.475-.54,9.542,9.542,0,0,0-2.5.146c-.423.044-.832-.073-.862-.511-.058-1.066-.7-1.314-1.592-1.416a4.5,4.5,0,0,1-1.212-.38,1.83,1.83,0,0,1-1.022-.876Z" transform="translate(-14936.119 7343.193)" fill="#fff"/>
  </g>
</svg>
