<svg id="Group_4483" data-name="Group 4483" xmlns="http://www.w3.org/2000/svg" width="42.698" height="42.699" viewBox="0 0 42.698 42.699">
  <path id="Path_38497" data-name="Path 38497" d="M6.62,31.528V11.171A11.2,11.2,0,0,1,17.791,0H38.148A11.2,11.2,0,0,1,49.319,11.171V31.528A11.2,11.2,0,0,1,38.148,42.7H17.791A11.2,11.2,0,0,1,6.62,31.528Z" transform="translate(-6.62 0)" fill="#22004a"/>
  <g id="Group_4443" data-name="Group 4443" transform="translate(9.325 7.646)">
    <path id="Path_38483" data-name="Path 38483" d="M157.062,15.174a10.69,10.69,0,0,0,6.206,1.986V12.721a6.433,6.433,0,0,1-1.3-.131v3.5a10.621,10.621,0,0,1-6.206-1.986v9.068a8.222,8.222,0,0,1-12.792,6.834,8.23,8.23,0,0,0,14.106-5.754V15.189h0Zm1.606-4.483a6.245,6.245,0,0,1-1.606-3.622V6.5h-1.227a6.262,6.262,0,0,0,2.833,4.206h0ZM145.832,26.506a3.8,3.8,0,0,1-.774-2.278,3.755,3.755,0,0,1,3.768-3.753,3.714,3.714,0,0,1,1.139.175V16.109a7.761,7.761,0,0,0-1.3-.073V19.57a3.757,3.757,0,0,0-2.833,6.936Z" transform="translate(-139.319 -5.405)" fill="#ee1d52" fill-rule="evenodd"/>
    <path id="Path_38484" data-name="Path 38484" d="M156.5,14.1a10.69,10.69,0,0,0,6.206,1.986v-3.5a6.215,6.215,0,0,1-3.286-1.884,6.181,6.181,0,0,1-2.833-4.206h-3.242V24.247a3.763,3.763,0,0,1-6.761,2.263,3.754,3.754,0,0,1,1.694-7.112,3.647,3.647,0,0,1,1.139.175V16.04a8.213,8.213,0,0,0-8.046,8.221A8.127,8.127,0,0,0,143.721,30a8.222,8.222,0,0,0,12.792-6.834V14.1Z" transform="translate(-140.056 -5.409)" fill="#fff" fill-rule="evenodd"/>
    <path id="Path_38485" data-name="Path 38485" d="M163.119,12.92v-.949a6.18,6.18,0,0,1-3.286-.935A6.244,6.244,0,0,0,163.119,12.92Zm-6.133-6.089c-.029-.175-.058-.336-.073-.511V5.75h-4.468V23.507a3.764,3.764,0,0,1-3.768,3.753,3.854,3.854,0,0,1-1.694-.394,3.763,3.763,0,0,0,6.761-2.263V6.831Zm-7.17,9.55V15.373a9.688,9.688,0,0,0-1.124-.073,8.222,8.222,0,0,0-4.571,15.056,8.221,8.221,0,0,1,5.71-13.96h0Z" transform="translate(-140.47 -5.75)" fill="#69c9d0" fill-rule="evenodd"/>
  </g>
</svg>
