<svg xmlns="http://www.w3.org/2000/svg" width="201.393" height="96.699" viewBox="0 0 201.393 96.699">
  <g id="Group_44" data-name="Group 44" transform="translate(-41.7 -30.2)">
    <g id="Group_39" data-name="Group 39" transform="translate(41.7 30.2)">
      <circle id="Ellipse_326" data-name="Ellipse 326" cx="3.615" cy="3.615" r="3.615" transform="translate(53.251 11.957)" fill="#39a8df"/>
      <circle id="Ellipse_327" data-name="Ellipse 327" cx="1.529" cy="1.529" r="1.529" transform="translate(58.603 1.46)" fill="#39a8df"/>
      <circle id="Ellipse_328" data-name="Ellipse 328" cx="1.529" cy="1.529" r="1.529" transform="translate(45.882)" fill="#39a8df"/>
      <circle id="Ellipse_329" data-name="Ellipse 329" cx="1.529" cy="1.529" r="1.529" transform="translate(33.229 2.016)" fill="#39a8df"/>
      <circle id="Ellipse_330" data-name="Ellipse 330" cx="1.529" cy="1.529" r="1.529" transform="translate(21.62 7.369)" fill="#39a8df"/>
      <circle id="Ellipse_331" data-name="Ellipse 331" cx="1.529" cy="1.529" r="1.529" transform="translate(11.818 15.641)" fill="#39a8df"/>
      <circle id="Ellipse_332" data-name="Ellipse 332" cx="1.529" cy="1.529" r="1.529" transform="translate(4.658 26.208)" fill="#00a69c"/>
      <circle id="Ellipse_333" data-name="Ellipse 333" cx="1.529" cy="1.529" r="1.529" transform="translate(0.626 38.374)" fill="#00a69c"/>
      <circle id="Ellipse_334" data-name="Ellipse 334" cx="1.529" cy="1.529" r="1.529" transform="translate(0 51.165)" fill="#00a69c"/>
      <circle id="Ellipse_335" data-name="Ellipse 335" cx="1.529" cy="1.529" r="1.529" transform="translate(2.92 63.678)" fill="#00a69c"/>
      <circle id="Ellipse_336" data-name="Ellipse 336" cx="1.529" cy="1.529" r="1.529" transform="translate(9.037 74.871)" fill="#faaf40"/>
      <circle id="Ellipse_337" data-name="Ellipse 337" cx="1.529" cy="1.529" r="1.529" transform="translate(17.936 84.047)" fill="#faaf40"/>
      <circle id="Ellipse_338" data-name="Ellipse 338" cx="1.529" cy="1.529" r="1.529" transform="translate(29.058 90.443)" fill="#faaf40"/>
      <circle id="Ellipse_339" data-name="Ellipse 339" cx="1.529" cy="1.529" r="1.529" transform="translate(41.433 93.64)" fill="#faaf40"/>
      <circle id="Ellipse_340" data-name="Ellipse 340" cx="1.529" cy="1.529" r="1.529" transform="translate(54.224 93.432)" fill="#faaf40"/>
      <circle id="Ellipse_341" data-name="Ellipse 341" cx="1.529" cy="1.529" r="1.529" transform="translate(66.459 89.678)" fill="#faaf40"/>
      <circle id="Ellipse_342" data-name="Ellipse 342" cx="1.529" cy="1.529" r="1.529" transform="translate(70.421 6.326)" fill="#39a8df"/>
      <circle id="Ellipse_343" data-name="Ellipse 343" cx="2.086" cy="2.086" r="2.086" transform="translate(51.165 4.588)" fill="#39a8df"/>
      <circle id="Ellipse_344" data-name="Ellipse 344" cx="2.086" cy="2.086" r="2.086" transform="translate(39.695 4.866)" fill="#39a8df"/>
      <circle id="Ellipse_345" data-name="Ellipse 345" cx="2.086" cy="2.086" r="2.086" transform="translate(28.711 8.203)" fill="#39a8df"/>
      <circle id="Ellipse_346" data-name="Ellipse 346" cx="2.086" cy="2.086" r="2.086" transform="translate(19.048 14.321)" fill="#39a8df"/>
      <circle id="Ellipse_347" data-name="Ellipse 347" cx="2.086" cy="2.086" r="2.086" transform="translate(11.401 22.871)" fill="#00a69c"/>
      <circle id="Ellipse_348" data-name="Ellipse 348" cx="2.086" cy="2.086" r="2.086" transform="translate(6.326 33.16)" fill="#00a69c"/>
      <circle id="Ellipse_349" data-name="Ellipse 349" cx="2.086" cy="2.086" r="2.086" transform="translate(4.241 44.422)" fill="#00a69c"/>
      <circle id="Ellipse_350" data-name="Ellipse 350" cx="2.086" cy="2.086" r="2.086" transform="translate(5.283 55.823)" fill="#00a69c"/>
      <circle id="Ellipse_351" data-name="Ellipse 351" cx="2.086" cy="2.086" r="2.086" transform="translate(9.315 66.528)" fill="#00a69c"/>
      <circle id="Ellipse_352" data-name="Ellipse 352" cx="2.086" cy="2.086" r="2.086" transform="translate(16.128 75.774)" fill="#faaf40"/>
      <circle id="Ellipse_353" data-name="Ellipse 353" cx="2.086" cy="2.086" r="2.086" transform="translate(25.165 82.865)" fill="#faaf40"/>
      <circle id="Ellipse_354" data-name="Ellipse 354" cx="2.086" cy="2.086" r="2.086" transform="translate(35.732 87.175)" fill="#faaf40"/>
      <circle id="Ellipse_355" data-name="Ellipse 355" cx="2.086" cy="2.086" r="2.086" transform="translate(47.133 88.496)" fill="#faaf40"/>
      <circle id="Ellipse_356" data-name="Ellipse 356" cx="2.086" cy="2.086" r="2.086" transform="translate(58.464 86.758)" fill="#faaf40"/>
      <circle id="Ellipse_357" data-name="Ellipse 357" cx="2.086" cy="2.086" r="2.086" transform="translate(68.892 81.961)" fill="#faaf40"/>
      <circle id="Ellipse_358" data-name="Ellipse 358" cx="2.086" cy="2.086" r="2.086" transform="translate(72.229 13.208)" fill="#39a8df"/>
      <circle id="Ellipse_359" data-name="Ellipse 359" cx="2.086" cy="2.086" r="2.086" transform="translate(62.288 7.508)" fill="#39a8df"/>
      <circle id="Ellipse_360" data-name="Ellipse 360" cx="3.615" cy="3.615" r="3.615" transform="translate(44.074 10.914)" fill="#39a8df"/>
      <circle id="Ellipse_361" data-name="Ellipse 361" cx="3.615" cy="3.615" r="3.615" transform="translate(34.898 12.374)" fill="#39a8df"/>
      <circle id="Ellipse_362" data-name="Ellipse 362" cx="3.615" cy="3.615" r="3.615" transform="translate(26.486 16.198)" fill="#39a8df"/>
      <circle id="Ellipse_363" data-name="Ellipse 363" cx="3.615" cy="3.615" r="3.615" transform="translate(19.395 22.176)" fill="#00a69c"/>
      <circle id="Ellipse_364" data-name="Ellipse 364" cx="3.615" cy="3.615" r="3.615" transform="translate(14.251 29.893)" fill="#00a69c"/>
      <circle id="Ellipse_365" data-name="Ellipse 365" cx="3.615" cy="3.615" r="3.615" transform="translate(11.331 38.652)" fill="#00a69c"/>
      <circle id="Ellipse_366" data-name="Ellipse 366" cx="3.615" cy="3.615" r="3.615" transform="translate(10.845 47.898)" fill="#00a69c"/>
      <circle id="Ellipse_367" data-name="Ellipse 367" cx="3.615" cy="3.615" r="3.615" transform="translate(12.93 56.935)" fill="#00a69c"/>
      <circle id="Ellipse_368" data-name="Ellipse 368" cx="3.615" cy="3.615" r="3.615" transform="translate(17.379 65.069)" fill="#00a69c"/>
      <circle id="Ellipse_369" data-name="Ellipse 369" cx="3.615" cy="3.615" r="3.615" transform="translate(23.845 71.742)" fill="#faaf40"/>
      <circle id="Ellipse_370" data-name="Ellipse 370" cx="3.615" cy="3.615" r="3.615" transform="translate(31.839 76.4)" fill="#faaf40"/>
      <circle id="Ellipse_371" data-name="Ellipse 371" cx="3.615" cy="3.615" r="3.615" transform="translate(40.807 78.694)" fill="#faaf40"/>
      <circle id="Ellipse_372" data-name="Ellipse 372" cx="3.615" cy="3.615" r="3.615" transform="translate(50.122 78.486)" fill="#faaf40"/>
      <circle id="Ellipse_373" data-name="Ellipse 373" cx="3.615" cy="3.615" r="3.615" transform="translate(58.951 75.774)" fill="#faaf40"/>
      <circle id="Ellipse_374" data-name="Ellipse 374" cx="3.615" cy="3.615" r="3.615" transform="translate(61.801 15.502)" fill="#39a8df"/>
    </g>
    <g id="Group_43" data-name="Group 43" transform="translate(75.903 65.58)">
      <path id="HUBS" d="M1.572-14.272H3.938v7.144h8.991v-7.144h2.366V3.017H12.929V-5.068H3.938V3.017H1.572Zm19.889,0V-3.585a6.286,6.286,0,0,0,.706,3.131A3.711,3.711,0,0,0,25.7,1.428q2.978,0,4.049-2.036a6.482,6.482,0,0,0,.577-2.978V-14.272H32.7v9.709A11.234,11.234,0,0,1,31.842.345q-1.577,3.131-5.955,3.131T19.944.345a11.234,11.234,0,0,1-.859-4.908v-9.709ZM42.822-6.963a5.253,5.253,0,0,0,2.307-.412,2.373,2.373,0,0,0,1.295-2.33,2.246,2.246,0,0,0-1.377-2.283,6.189,6.189,0,0,0-2.307-.33H38.562v5.355Zm.789,7.979A3.562,3.562,0,0,0,46.683-.231a3.141,3.141,0,0,0,.577-1.907A2.537,2.537,0,0,0,45.576-4.7a6.371,6.371,0,0,0-2.366-.365H38.562V1.016ZM36.267-14.272h7.426q3.036,0,4.319,1.812a4.188,4.188,0,0,1,.753,2.471,3.891,3.891,0,0,1-.93,2.683,4.544,4.544,0,0,1-1.389,1.012,5.875,5.875,0,0,1,1.989,1.142A4.142,4.142,0,0,1,49.6-2.032,4.82,4.82,0,0,1,48.554.993q-1.565,2.024-4.978,2.024H36.267ZM53.932-2.561a4.725,4.725,0,0,0,.694,2.389q1.165,1.718,4.107,1.718a7.27,7.27,0,0,0,2.4-.377A2.668,2.668,0,0,0,63.23-1.443a2.256,2.256,0,0,0-.883-2.012,8.913,8.913,0,0,0-2.8-1.024L57.2-5.009a10.6,10.6,0,0,1-3.248-1.142,3.617,3.617,0,0,1-1.648-3.236,4.984,4.984,0,0,1,1.612-3.825,6.469,6.469,0,0,1,4.566-1.495,7.931,7.931,0,0,1,4.619,1.312,4.736,4.736,0,0,1,1.9,4.2h-2.2a4.332,4.332,0,0,0-.753-2.13,4.376,4.376,0,0,0-3.637-1.353,4.207,4.207,0,0,0-2.978.871,2.726,2.726,0,0,0-.906,2.024,1.977,1.977,0,0,0,1.059,1.859,15.544,15.544,0,0,0,3.142.942l2.424.553a7.428,7.428,0,0,1,2.707,1.095A4.1,4.1,0,0,1,65.513-1.82a4.393,4.393,0,0,1-2.089,4.107,9.355,9.355,0,0,1-4.855,1.236A7.259,7.259,0,0,1,53.52,1.875a5.559,5.559,0,0,1-1.789-4.437Z" transform="translate(91.856 50.144)" fill="#fff"/>
      <g id="Group_40" data-name="Group 40" transform="translate(0 0.626)">
        <path id="Path_14" data-name="Path 14" d="M90.9,85.613v11.4h.07c.417,8.134,6.4,13.625,13.764,13.625a14.414,14.414,0,0,0,11.47-5.214l-2.572-2.294a11.413,11.413,0,0,1-8.759,3.893c-4.866,0-9.176-3.406-9.8-9.246H116.2V94.094H95.141V85.683H116.2V82H95.141S90.9,81.72,90.9,85.613Z" transform="translate(-90.9 -81.994)" fill="#fff"/>
      </g>
      <g id="Group_41" data-name="Group 41" transform="translate(62.288 0.626)">
        <path id="Path_15" data-name="Path 15" d="M180.5,85.613v11.4h.07c.417,8.134,6.4,13.625,13.765,13.625a14.414,14.414,0,0,0,11.47-5.214l-2.572-2.294a11.413,11.413,0,0,1-8.759,3.893c-4.866,0-9.176-3.406-9.8-9.246H205.8V94.094H184.741V85.683H205.8V82H184.741C184.671,82,180.5,81.72,180.5,85.613Z" transform="translate(-180.5 -81.994)" fill="#fff"/>
      </g>
      <g id="Group_42" data-name="Group 42" transform="translate(28.85 0)">
        <path id="Path_16" data-name="Path 16" d="M132.4,81.9h4.588l9.315,23.08,9.385-23.08h4.449l-12.1,28.016h-3.684Z" transform="translate(-132.4 -81.339)" fill="#fff"/>
        <path id="Path_17" data-name="Path 17" d="M225.1,81.654h4.1V86.52a10.535,10.535,0,0,1,9.524-5.422c6.743,0,10.636,4.519,10.636,11.123v17.24h-4.171V93.194c0-5.144-2.781-8.412-7.647-8.412-4.8,0-8.342,3.476-8.342,8.69v15.92h-4.1Z" transform="translate(-160.657 -81.093)" fill="#fff"/>
        <path id="Path_18" data-name="Path 18" d="M277.164,81.87h8.829v3.684h-8.829v16.2c0,3.406,1.877,4.588,4.658,4.588a8.805,8.805,0,0,0,4.032-.973v3.545a10.246,10.246,0,0,1-5.005,1.182c-4.449,0-7.855-2.225-7.855-7.856V85.484H269.1V81.8h8.064Z" transform="translate(-174.069 -81.309)" fill="#fff"/>
        <path id="Path_19" data-name="Path 19" d="M300.6,105.848l2.085-2.989a16.361,16.361,0,0,0,9.593,3.545c3.337,0,5.77-1.738,5.77-4.38v-.139c0-2.781-3.267-3.893-6.952-4.866-4.38-1.251-9.176-2.711-9.176-7.855v-.139c0-4.8,3.963-7.925,9.454-7.925a19.024,19.024,0,0,1,10.011,3.059l-1.877,3.128a15.77,15.77,0,0,0-8.2-2.711c-3.267,0-5.353,1.738-5.353,4.032v.139c0,2.642,3.406,3.684,7.16,4.8,4.31,1.321,8.9,2.92,8.9,7.925v.139c0,5.283-4.38,8.342-9.871,8.342A18.85,18.85,0,0,1,300.6,105.848Z" transform="translate(-183.671 -81.095)" fill="#fff"/>
      </g>
    </g>
  </g>
</svg>
